<svg xmlns="http://www.w3.org/2000/svg" width="1819.30" height="878.60" viewBox="0 0 1819.30 878.60">
<defs>
  <linearGradient id="goldGradient" x1="0%" y1="0%" x2="100%" y2="100%">
    <stop offset="0%" style="stop-color:#F7E98E"/>
    <stop offset="20%" style="stop-color:#EEDC6E"/>
    <stop offset="40%" style="stop-color:#D4AF37"/>
    <stop offset="60%" style="stop-color:#C9A227"/>
    <stop offset="80%" style="stop-color:#B8860B"/>
    <stop offset="100%" style="stop-color:#996515"/>
  </linearGradient>
</defs>
<path d="M183.00 0.60 C134.10 3.90 88.80 25.00 54.90 60.30 C23.90 92.60 5.50 132.50 1.00 177.10 C0.20 184.90 0.00 262.80 0.20 446.60 L0.60 705.10 L2.70 716.10 C10.50 755.70 27.50 789.30 54.00 816.90 C59.70 822.90 67.70 830.50 71.70 833.80 C102.80 859.20 140.80 874.30 181.60 877.60 C190.40 878.40 422.90 878.60 919.00 878.40 L1643.50 878.00 L1655.00 875.80 C1697.40 867.60 1732.70 849.60 1760.50 821.90 C1777.80 804.70 1788.40 789.80 1799.00 768.10 C1806.40 753.00 1809.50 744.50 1813.40 729.00 C1819.20 705.90 1819.00 718.50 1819.00 439.10 C1819.00 158.30 1819.30 172.80 1813.10 148.50 C1803.90 112.10 1786.20 81.60 1759.40 55.60 C1729.10 26.30 1694.30 9.10 1650.70 1.80 C1641.20 0.30 1591.20 0.10 917.00 0.00 C519.10 0.00 188.80 0.20 183.00 0.60 M1640.80 16.70 C1664.50 19.20 1681.60 24.30 1703.50 35.10 C1721.10 43.90 1733.60 52.50 1747.20 65.50 C1781.00 97.60 1799.90 138.40 1803.00 186.10 C1804.20 204.50 1804.20 673.70 1803.00 692.10 C1801.30 718.90 1795.70 739.70 1784.00 763.10 C1775.50 780.20 1766.60 792.70 1753.70 806.30 C1729.10 831.80 1701.90 848.00 1668.80 856.60 C1643.80 863.10 1706.80 862.60 909.50 862.60 C271.20 862.60 183.70 862.40 173.70 861.10 C91.00 850.30 26.60 785.50 17.00 703.60 C16.20 696.80 16.00 620.80 16.20 433.60 C16.50 188.90 16.60 172.60 18.30 164.30 C25.50 128.90 40.50 98.80 63.70 73.70 C92.80 42.10 133.50 21.60 177.00 16.70 C188.50 15.40 1628.90 15.40 1640.80 16.70" fill="url(#goldGradient)"/>
<path d="M106.50 112.80 C104.60 118.10 80.30 223.20 80.80 223.70 C81.20 224.10 82.70 224.60 84.20 225.00 C86.80 225.60 87.10 225.20 92.00 215.50 C105.80 187.80 120.70 171.30 140.50 161.60 C159.10 152.60 180.20 148.20 217.50 145.60 C236.50 144.30 319.40 142.40 322.70 143.20 C324.40 143.70 325.00 144.40 324.70 145.50 C324.50 146.40 269.70 234.60 203.00 341.60 C136.20 448.60 81.50 537.10 81.20 538.30 C80.20 543.60 72.50 543.30 244.20 543.90 C400.40 544.40 402.90 544.40 404.60 542.50 C406.10 540.90 407.20 532.60 411.10 493.80 C413.70 468.10 415.60 446.80 415.30 446.30 C415.10 445.90 413.80 445.60 412.40 445.60 C409.60 445.60 409.30 446.30 406.10 458.10 C398.10 487.50 374.30 513.30 345.10 524.20 C326.60 531.10 330.10 530.90 240.50 531.30 C193.90 531.50 158.90 531.30 158.10 530.70 C157.00 530.00 157.00 529.40 158.00 527.50 C158.70 526.20 212.80 438.40 278.10 332.50 C343.50 226.60 397.20 139.30 397.50 138.40 C397.80 137.60 397.20 135.80 396.10 134.50 L394.20 132.10 L259.80 131.60 C157.20 131.20 124.70 130.80 121.90 129.80 C116.40 127.90 114.60 125.30 114.00 118.20 C113.50 112.20 113.50 112.10 110.20 111.80 C108.20 111.60 106.80 112.00 106.50 112.80" fill="url(#goldGradient)"/>
<path d="M444.50 134.70 C444.10 135.80 444.00 137.00 444.30 137.30 C444.60 137.50 449.30 138.10 454.70 138.60 C469.60 139.90 473.40 142.00 476.70 150.50 C478.40 154.80 478.50 162.40 478.50 271.10 L478.50 387.10 L476.20 391.80 C473.10 398.10 468.20 400.40 455.40 401.70 C450.00 402.30 445.30 402.90 444.80 403.20 C443.40 404.10 443.90 406.40 445.60 407.00 C446.50 407.30 489.80 407.60 541.80 407.60 C616.10 407.60 637.00 407.30 639.00 406.30 C641.50 405.00 641.50 404.90 642.70 383.30 C643.40 371.30 644.60 356.60 645.30 350.50 C646.40 341.30 646.40 339.30 645.30 338.90 C643.30 338.10 641.00 339.30 641.00 341.10 C641.00 344.10 634.70 358.00 630.30 365.00 C621.80 378.20 611.50 386.10 594.90 391.80 L585.50 395.00 L561.60 395.40 C534.50 395.80 530.70 395.30 526.00 390.00 C520.70 383.90 520.60 383.30 520.30 324.80 L519.90 270.60 L547.30 270.60 C571.10 270.60 575.70 270.90 582.30 272.50 C590.90 274.70 594.80 276.60 600.20 280.80 C605.20 284.70 610.00 294.60 610.70 302.50 C611.20 308.20 611.40 308.60 613.80 308.60 L616.30 308.60 L615.70 291.30 C615.30 281.90 615.00 263.20 615.00 249.80 C615.00 226.70 614.90 225.60 613.10 225.60 C611.60 225.60 611.10 226.60 610.50 230.80 C609.20 240.70 604.70 247.40 596.50 252.00 C586.60 257.50 583.80 257.90 550.80 258.30 L520.00 258.80 L520.00 213.40 C520.00 188.50 520.40 165.40 521.00 162.20 C522.20 154.50 525.30 150.20 531.50 147.40 C536.10 145.30 538.20 145.10 556.90 144.80 C573.00 144.50 578.80 144.80 584.60 146.10 C606.00 150.80 619.80 165.00 626.50 188.80 C628.00 193.90 628.40 194.60 630.70 194.60 L633.30 194.60 L632.60 164.80 C632.20 147.60 631.50 134.70 630.90 134.10 C630.20 133.50 597.40 133.00 537.50 132.80 L445.10 132.60 L444.50 134.70" fill="url(#goldGradient)"/>
<path d="M708.60 134.20 C707.50 137.10 709.50 137.90 719.50 138.70 C736.20 140.10 740.20 144.00 742.10 160.40 C743.60 174.00 742.80 384.00 741.20 388.70 C738.20 397.60 733.50 400.30 719.10 401.70 C709.80 402.60 707.70 403.50 708.70 406.30 C709.10 407.40 726.60 407.60 813.70 407.40 C935.10 407.10 921.00 408.90 921.00 393.70 C921.00 383.30 922.50 356.60 924.00 342.10 C924.70 334.30 924.60 332.90 923.20 331.80 C921.10 330.20 920.50 330.90 918.50 338.10 C911.00 364.70 890.50 384.90 863.20 392.90 C856.00 395.00 853.60 395.10 824.80 395.10 C795.40 395.10 794.00 395.00 791.30 393.00 C789.80 391.90 787.60 389.20 786.50 387.00 C784.50 383.20 784.50 380.80 784.20 272.60 C783.90 150.80 783.90 150.50 789.40 145.00 C793.30 141.10 801.10 138.60 809.50 138.60 C816.60 138.60 820.50 136.70 818.00 134.40 C816.80 133.20 812.40 133.10 793.50 133.70 C771.40 134.50 718.80 134.00 712.40 133.00 C710.00 132.70 709.10 133.00 708.60 134.20" fill="url(#goldGradient)"/>
<path d="M974.50 134.60 C974.10 135.80 974.00 137.00 974.30 137.30 C974.60 137.50 979.40 138.20 985.00 138.60 C1002.50 140.20 1006.50 144.10 1008.10 161.30 C1009.20 174.00 1009.20 366.10 1008.10 378.80 C1007.00 390.60 1005.00 395.30 999.60 398.30 C995.70 400.40 993.70 400.80 980.20 402.20 C974.60 402.70 973.90 403.00 974.20 404.80 C974.50 406.80 975.20 406.90 1024.50 407.30 C1121.50 408.20 1121.30 408.20 1132.90 405.70 C1190.60 393.30 1232.20 351.80 1243.00 295.90 C1258.30 216.80 1212.60 152.00 1129.90 135.40 C1117.40 132.90 1121.40 133.00 1021.80 133.60 C999.40 133.70 979.80 133.50 978.10 133.10 C975.70 132.60 975.10 132.80 974.50 134.60 M1121.40 143.50 C1162.00 154.20 1191.00 195.60 1198.00 253.20 C1199.80 267.30 1198.70 299.00 1196.10 311.70 C1185.00 366.10 1151.40 397.20 1100.60 400.20 C1088.70 400.90 1074.10 399.40 1066.70 396.60 C1061.40 394.60 1056.40 390.30 1054.00 385.60 C1050.10 378.10 1050.00 376.70 1050.00 268.00 C1050.00 150.40 1049.70 155.80 1056.90 149.30 C1064.10 142.80 1076.10 140.50 1099.50 141.10 C1109.50 141.40 1115.80 142.10 1121.40 143.50" fill="url(#goldGradient)"/>
<path d="M1294.00 345.70 L1294.00 349.20 L1308.30 350.30 C1326.00 351.80 1332.70 353.70 1338.50 358.80 C1344.70 364.30 1346.90 370.80 1348.10 387.10 C1348.70 394.90 1349.00 463.30 1348.70 558.60 C1348.40 704.40 1348.30 717.60 1346.70 723.50 C1342.40 739.20 1333.60 744.10 1307.70 745.30 C1294.40 745.90 1293.90 746.00 1293.40 748.20 C1293.10 749.50 1293.00 751.10 1293.20 751.70 C1293.50 752.70 1312.70 753.00 1380.30 753.00 L1466.90 753.10 L1467.50 750.80 C1468.60 746.50 1466.90 745.90 1452.30 745.30 C1426.20 744.20 1417.90 739.80 1413.20 724.40 C1411.80 719.70 1411.60 708.70 1411.30 633.30 L1410.90 547.60 L1524.50 547.60 L1638.10 547.60 L1637.80 632.80 C1637.40 710.40 1637.30 718.60 1635.70 724.00 C1633.30 732.10 1630.60 736.20 1625.60 739.10 C1619.20 742.90 1609.80 744.80 1594.50 745.50 L1580.50 746.10 L1580.50 749.50 L1580.50 752.90 L1667.50 753.00 L1754.50 753.00 L1754.50 749.50 L1754.50 746.10 L1741.00 745.50 C1709.00 743.90 1702.20 738.10 1700.00 710.20 C1698.80 694.40 1698.70 399.70 1700.00 384.90 C1701.10 370.80 1702.40 366.60 1707.10 361.20 C1713.50 354.00 1722.00 351.40 1744.30 350.00 L1755.00 349.30 L1755.00 345.80 L1755.00 342.30 L1714.80 343.20 C1665.00 344.30 1669.80 344.30 1620.80 343.20 L1580.00 342.40 L1580.00 346.00 L1580.00 349.60 L1584.80 349.60 C1594.30 349.60 1611.60 351.80 1617.50 353.80 C1628.40 357.40 1633.60 363.70 1636.30 376.20 C1637.20 380.60 1637.50 401.20 1637.50 456.60 L1637.50 531.10 L1524.30 531.40 L1411.00 531.60 L1411.00 458.40 C1411.10 378.70 1411.40 373.80 1416.50 365.10 C1421.70 356.20 1431.70 352.10 1453.20 350.30 C1465.30 349.30 1466.90 349.00 1467.40 347.30 C1468.70 342.20 1469.90 342.30 1425.60 343.20 C1375.90 344.30 1380.40 344.30 1332.80 343.20 L1294.00 342.30 L1294.00 345.70" fill="url(#goldGradient)"/>
<path d="M1186.40 474.60 C1153.50 478.30 1128.30 493.50 1117.60 516.10 C1113.30 525.20 1111.70 532.80 1111.70 544.60 C1111.70 560.70 1116.20 572.60 1127.40 586.50 C1134.30 595.10 1143.70 602.40 1172.80 622.00 C1202.50 641.90 1212.10 649.30 1219.50 658.30 C1231.60 673.00 1236.50 687.70 1235.80 707.40 C1235.10 726.90 1229.90 736.00 1215.70 742.90 C1207.20 747.00 1200.40 748.60 1191.20 748.60 C1161.40 748.50 1141.60 730.60 1119.30 683.60 C1115.20 675.10 1111.50 667.40 1111.10 666.60 C1110.00 664.60 1107.40 664.10 1106.80 665.80 C1106.10 668.00 1109.10 734.70 1110.10 737.20 C1112.50 743.80 1134.40 752.30 1158.30 756.10 C1170.90 758.10 1191.90 758.10 1203.40 756.10 C1231.40 751.20 1253.00 737.20 1264.90 716.10 C1272.00 703.50 1275.30 685.60 1273.20 671.00 C1271.60 660.50 1269.20 653.70 1263.80 645.50 C1253.40 629.40 1247.30 624.20 1205.10 596.20 C1172.10 574.30 1163.60 567.30 1156.10 555.60 C1149.80 545.90 1147.80 539.60 1147.20 527.90 C1146.50 512.60 1149.90 502.50 1158.70 493.90 C1166.70 486.20 1176.90 482.60 1190.60 482.60 C1210.70 482.70 1224.60 490.10 1235.60 506.90 C1241.90 516.50 1249.40 531.30 1253.90 543.20 C1256.90 551.00 1258.00 553.10 1259.60 553.10 C1261.40 553.10 1261.50 552.20 1261.30 521.10 L1261.00 489.20 L1258.70 486.80 C1251.10 479.20 1208.80 472.00 1186.40 474.60" fill="url(#goldGradient)"/>
<path d="M911.60 477.30 C910.90 478.90 888.50 528.90 862.10 588.50 C835.60 648.10 811.40 701.80 808.30 708.00 C794.00 736.50 784.60 745.40 766.50 747.40 C761.20 748.00 760.50 748.40 760.20 750.40 L759.80 752.80 L785.20 752.00 C815.90 751.00 810.30 751.00 840.80 752.00 L866.20 752.80 L865.80 750.40 C865.50 748.30 864.90 748.00 858.00 747.50 C841.10 746.10 830.50 740.40 825.50 730.00 C822.80 724.50 822.30 712.40 824.50 703.80 C825.40 700.10 834.10 679.10 843.90 657.10 L861.60 617.10 L901.60 616.80 L941.70 616.60 L965.00 663.80 C990.60 715.80 994.20 723.60 995.90 731.40 C998.10 741.80 993.20 746.30 978.30 747.40 C971.20 747.80 969.00 749.10 970.60 751.80 C971.00 752.40 979.50 752.50 995.40 752.00 C1024.30 751.10 1018.00 751.00 1049.80 752.00 L1076.20 752.80 L1075.80 750.50 C1075.60 748.50 1074.80 748.00 1071.50 747.60 C1061.00 746.20 1051.60 737.90 1041.90 721.50 C1038.80 716.30 1010.30 659.70 978.60 595.60 C946.90 531.50 920.20 478.10 919.40 476.80 C917.30 473.60 913.40 473.90 911.60 477.30 M918.00 568.30 C927.90 588.40 936.00 605.10 936.00 605.30 C936.00 605.80 868.40 605.60 867.80 605.10 C867.30 604.60 899.10 531.70 899.70 531.60 C899.90 531.60 908.10 548.10 918.00 568.30" fill="url(#goldGradient)"/>
<path d="M442.00 481.20 C442.00 483.10 442.70 483.40 451.30 484.00 C466.90 485.10 472.00 487.60 475.60 495.80 C477.40 499.90 477.50 505.50 477.80 612.10 C478.10 694.40 477.80 725.90 477.00 730.90 C475.00 742.60 469.30 746.30 451.00 747.50 C442.30 748.00 441.50 748.30 441.20 750.20 L440.90 752.40 L498.90 752.40 L557.00 752.40 L557.00 750.20 C557.00 748.00 556.60 747.90 546.20 747.30 C529.30 746.40 523.30 742.90 521.10 732.60 C520.40 729.30 520.00 708.10 520.00 671.60 L520.00 615.60 L595.50 615.60 L671.00 615.60 L671.00 669.30 C671.00 701.90 670.60 725.60 669.90 729.50 C667.70 743.10 662.80 746.20 642.00 747.50 C633.40 748.00 632.50 748.30 632.50 750.10 C632.50 752.10 633.20 752.10 690.80 752.30 L749.10 752.40 L748.80 750.30 C748.50 748.20 747.70 748.00 737.60 747.40 C723.30 746.40 718.60 744.30 715.00 737.10 L712.50 732.10 L712.20 618.60 C712.00 538.50 712.30 503.60 713.10 499.80 C715.30 489.20 722.00 485.20 739.60 484.00 C748.50 483.30 749.10 483.20 748.80 481.20 C748.50 479.10 748.50 479.10 690.50 479.20 C633.90 479.20 632.50 479.30 632.50 481.20 C632.50 482.90 633.50 483.20 641.50 483.80 C658.90 485.20 664.40 487.80 668.40 496.60 C670.40 501.00 670.50 502.80 670.80 552.80 L671.10 604.60 L595.60 604.60 L520.00 604.60 L520.00 554.00 C520.00 519.30 520.40 502.10 521.10 498.90 C523.50 489.50 531.10 485.30 548.10 484.00 C556.30 483.40 557.00 483.10 557.00 481.20 L557.00 479.10 L499.50 479.10 L442.00 479.10 L442.00 481.20" fill="url(#goldGradient)"/>
</svg>
